PathFileType	4	(X/Y/Z)	Patient4_TMGait_0pt4_01_left_18.trc.trc
DataRate	CameraRate	NumFrames	NumMarkers	Units	OrigDataRate	OrigDataStartFrame	OrigNumFrames
40.345821325648	40.345821325648	4	33	mm	40.345821325648	89	       141
Frame#	Time	Sacral			L.Shoulder			Chest			R.Shoulder			Neck			R.ASIS			L.ASIS			R.Thigh.Superior			R.Thigh.Lateral			R.Thigh.Inferior			R.Patella			L.Thigh.Superior			L.Thigh.Lateral			L.Thigh.Inferior			L.Patella			L.Shank.Superior			L.Shank.Lateral			L.Shank.Inferior			R.Shank.Superior			R.Shank.Lateral			R.Shank.Inferior			R.Heel			R.Midfoot.Superior			R.Midfoot.Lateral			R.Toe			L.Heel			L.Midfoot.Lateral			L.Midfoot.Superior			L.Toe			L.Elbow			L.Wrist			R.Elbow			R.Wrist			
		X1	Y1	Z1	X2	Y2	Z2	X3	Y3	Z3	X4	Y4	Z4	X5	Y5	Z5	X6	Y6	Z6	X7	Y7	Z7	X8	Y8	Z8	X9	Y9	Z9	X10	Y10	Z10	X11	Y11	Z11	X12	Y12	Z12	X13	Y13	Z13	X14	Y14	Z14	X15	Y15	Z15	X16	Y16	Z16	X17	Y17	Z17	X18	Y18	Z18	X19	Y19	Z19	X20	Y20	Z20	X21	Y21	Z21	X22	Y22	Z22	X23	Y23	Z23	X24	Y24	Z24	X25	Y25	Z25	X26	Y26	Z26	X27	Y27	Z27	X28	Y28	Z28	X29	Y29	Z29	X30	Y30	Z30	X31	Y31	Z31	X32	Y32	Z32	X33	Y33	Z33	

89	23.221142857143	596.098742769045	1006.665736227983	379.446706805543	765.458036286248	1441.496365677981	200.472376134554	879.944290809767	1369.890839454226	351.654741076396	808.096769741889	1438.860945178596	533.208591043182	759.503107094169	1496.560090838442	365.566472055133	831.637693737862	940.518379948906	478.889228759743	800.310051293630	968.546092952686	207.945258801783	868.606079049627	738.416066627280	452.727510258932	791.816089901260	629.262535744155	521.214237164778	869.428494759404	572.265842405559	444.084306709527	863.445557563078	466.249974691379	463.588875306118	854.080163727005	756.323803048920	227.626067766543	765.426001830660	637.087377358559	174.023476529862	858.388182820542	562.164262664025	227.189622457295	861.366340794630	492.221718062089	235.358544679713	834.016969781164	419.261451048526	229.882672717220	740.771037815741	304.459427561030	188.390755923535	799.585077193422	193.031932295468	252.461081747741	792.073727266762	395.312425307905	468.007344307067	676.562107332248	341.607222790121	526.599828521888	673.582798097249	233.872383277433	471.810476363809	480.802125645198	142.187244041825	440.344906763422	655.438449473691	116.232179652681	479.488117285626	549.248440818573	92.809619820315	510.844539547988	737.822356594531	30.703609724295	498.111851791785	678.712880814729	37.805363328567	308.599771819222	741.458684269560	34.420788123205	218.769384729321	828.193228048016	95.405779782476	234.722993725527	951.832859028603	41.888453180600	189.666448787538	706.496518844020	1156.685966069268	-10.426996872633	865.611729432301	984.187258606761	-135.003973005145	735.857591313571	1107.740539366437	666.220123061480	785.337432398343	852.346407011379	696.158277778394	
90	23.245928571429	593.958130030104	1006.879986475136	374.234748610807	767.707563383975	1441.308678427879	196.275670218878	879.412674294385	1369.600708400436	349.368113924420	804.940975948154	1439.349409768344	529.497610234528	759.396978177973	1496.748281007932	360.995078042529	828.193279801794	940.901595065164	476.486402168905	800.158591928328	968.474355918895	205.305780910629	873.868568628715	743.303869144637	450.340815297502	803.148680193995	631.683856169624	519.799246601612	883.921692317532	577.357670044009	443.075278020241	881.253176045948	469.088554095073	463.969136641116	851.740003410367	755.312165535958	225.200767504269	761.777224169700	637.122926591670	171.483943520606	853.076305062314	561.164098929693	225.493896054819	855.129830566540	491.426051770828	234.110722908374	827.448133549932	418.669833901967	228.561172759621	733.863679841425	304.388639522625	186.880036574877	791.204801037479	192.815165457641	251.772035470239	806.809135795214	398.744612362309	467.896020083408	687.903854257319	350.676378282787	525.703198126130	680.385234509808	242.432301609964	472.014638482699	483.155525615250	162.783661637791	439.873449575849	656.150102838868	123.448273812638	480.265173119264	547.709699354264	107.556774510266	510.407363042923	731.207255997296	30.494310257071	498.423238424403	669.277422210941	37.972614534157	308.055290889063	732.038337011194	34.606634025019	218.202780712022	818.740554013345	95.584987478645	234.264241190634	942.420254572263	42.029425185590	189.180669239446	713.020790876341	1158.923535817147	-18.024805963556	878.152659525902	990.779201153815	-140.746928205149	723.163301045529	1110.503956153708	661.893993074783	761.408902078363	852.914999597892	696.669493533209	
91	23.270714285714	591.514329909212	1007.180387618140	369.336002025904	770.176747729260	1441.057898069285	192.565198653790	878.768087810825	1369.225811396972	347.702032037368	801.457836243715	1439.842502922549	526.226018642160	759.319292053351	1496.911876095071	356.758388802855	824.312365643060	941.377901702605	474.745024753956	799.866475485249	968.275093503900	203.317846089425	878.690922599546	748.892359918841	448.510517617406	814.240936596661	634.897410341365	518.963393550881	898.015918916364	583.478147384002	442.571960748036	898.943051378380	473.290452583723	464.620542639348	849.143870610810	754.200480165683	223.461709072331	757.964101558037	637.106518147689	169.418815257360	847.601102725251	560.141832943988	224.314275947439	848.740685066144	490.586092300581	233.256544150538	820.684659858371	418.089030020171	227.581225985961	726.720942725488	304.362399607687	185.724227468197	782.659770369691	192.601345073162	251.264619984573	822.062300219036	403.081385809460	468.109311931547	700.230790718972	359.797927086234	525.068028740361	688.952675638155	251.125112755077	472.386636988456	488.200392678909	181.925723729830	439.299559117063	659.461703264466	131.133200798497	481.305784143402	549.087921160550	121.963063551232	510.197101179464	727.994065149625	31.028935658418	499.681361251624	659.731497438884	38.208641697385	307.693479574236	722.491725065608	34.801820350494	217.814418526163	809.197539807895	95.691696512860	233.942608832463	932.852092019338	42.004853810401	188.820070924694	719.766849144419	1161.225250236369	-25.073925464841	890.618591584192	997.384036189549	-145.835092799710	711.236448247610	1113.132819406148	657.892740649611	740.959936259068	854.435330894883	696.474112549540	
92	23.295500000000	588.841319190326	1007.632539478879	364.816708268321	772.808180654694	1440.809219736436	189.401963549061	878.018810410796	1368.841579258823	346.666723357156	797.714033600812	1440.394139220675	523.430884155697	759.283674062966	1497.108102455107	352.908599485460	820.107443499844	942.015612652121	473.675314279069	799.469279286485	968.015213940400	201.988726964042	882.751553229826	754.973191221048	447.264486837678	824.503390553082	638.799807433437	518.722483685007	910.988312585270	590.373281731881	442.579667089393	915.707568860917	478.705601803038	465.581719690412	846.285526472883	753.017258017780	222.421471508960	753.920407213300	637.082826356276	167.871587209732	841.877518589226	559.111181953442	223.673410839983	842.088544046357	489.739149378803	232.840512949936	813.649425095641	417.557244111871	226.972584620423	719.287772880251	304.401794418981	184.914835118787	773.917570906489	192.405861347054	250.934494338090	837.194601070743	408.139882999453	468.740928211574	713.085933311158	368.372991823420	524.827382013475	699.234411705092	259.320056251020	473.086634369119	496.151123343593	197.914965011316	438.836737851752	665.830087274371	138.701864489476	482.826260127314	553.940622368956	134.787892852133	510.475967171103	729.270049913935	32.461634073052	502.216588991499	650.054520291144	38.500664407305	307.481734815127	712.807936367490	35.001596365453	217.577678716126	799.550366492218	95.729679364928	233.742620171349	923.126147451716	41.823105104162	188.577145236677	726.694787195656	1163.536957084725	-31.394150707422	902.874639808731	1003.796929501700	-150.025098161467	700.326140898982	1115.521593832779	654.236265725482	724.389281637037	856.521661042047	695.659334259644	
